<?xml version="1.0" encoding="utf-8"?>
<svg width="800" height="800" viewBox="0 0 800 800" fill="none" xmlns="http://www.w3.org/2000/svg">
  <defs>
    <clipPath id="clip_path_1">
      <rect width="800" height="800" />
    </clipPath>
  </defs>
  <g clip-path="url(#clip_path_1)">
    <rect width="800" height="800" />
    <g id="Group">
      <g id="Group">
        <g id="Group">
          <path id="Path" d="M285.367 120.009C287.025 120.009 288.673 119.966 290.328 119.947C198.008 70.6891 101.066 30.6484 0 0C72.6328 74.014 173.722 120.009 285.367 120.009C285.367 120.009 285.367 120.009 285.367 120.009Z" fill="#409EFF" transform="translate(114.633 679.991)" />
          <path id="Path" d="M0 0C2.81719 14.0891 6.36875 27.9141 10.6266 41.4312C137.241 67.9812 260.323 108.902 376.492 163.102C446.347 195.694 513.98 233.23 578.719 275.244C591.608 268.422 604.095 260.937 616.105 252.798C440.558 133.327 245.233 50.6562 34.0172 6.6781C22.7188 4.32343 11.3719 2.11716 0 0C0 0 0 0 0 0Z" fill="#409EFF" transform="translate(7.761 478.538)" />
          <path id="Path" d="M186.308 0L35.4578 0C35.4578 0 35.4578 0.00469971 35.4578 0.00469971C28.3125 16.9422 16.95 37.8969 0 54.3594C0 54.3594 0 99.0578 0 99.0578C27.8 94.0922 55.6922 89.7953 83.6484 86.261C119.128 81.7766 154.772 78.4828 190.494 76.3C190.706 70.9703 190.844 65.6234 190.844 60.2422C190.842 39.7688 189.287 19.6531 186.308 0C186.308 0 186.308 0 186.308 0Z" fill="#409EFF" transform="translate(609.158 339.755)" />
          <path id="Path" d="M84.5453 0C84.5453 0 38.4125 0 38.4125 0C37.239 16.0484 33.3281 33.125 27.0312 49.0797C21.9203 62.025 13.3297 79.0625 0 92.7937C0 92.7937 0 138.117 0 138.117C0 138.117 0.00314331 138.117 0.00314331 138.117C39.7188 126.722 79.7954 116.797 120.122 108.37C120.047 107.6 120.003 106.816 120.003 106.027C120.003 106.027 120.003 54.3562 120.003 54.3562C103.056 37.8906 91.6922 16.9344 84.5453 0C84.5453 0 84.5453 0 84.5453 0Z" fill="#409EFF" transform="translate(440.961 339.759)" />
          <path id="Path" d="M319.913 177.82C344.02 168.892 368.32 160.533 392.77 152.723C392.77 152.723 392.77 92.7938 392.77 92.7938C379.442 79.0641 370.85 62.0281 365.739 49.0797C359.442 33.1281 355.531 16.0484 354.358 0C354.358 0 4.53437 0 4.53437 0C1.55469 19.6563 0 39.7719 0 60.2438C0 69.7719 0.35625 79.2141 1.01719 88.5766C17.9422 91.5672 34.8219 94.7813 51.5984 98.2751C143.311 117.372 233.166 144.056 319.913 177.82C319.913 177.82 319.913 177.82 319.913 177.82Z" fill="#409EFF" transform="translate(0 339.756)" />
          <path id="Path" d="M350.348 266.961C356.739 248.112 368.319 222.587 387.192 208.009C395.872 201.306 407.975 201.306 416.655 208.009C435.527 222.587 447.108 248.112 453.498 266.959C456.233 275.027 458.52 283.336 460.312 291.567C460.312 291.567 496.344 291.567 496.344 291.567C494.305 280.109 493.183 268.777 493.183 258.02C493.183 233.428 498.644 203.22 508.161 175.145C516.477 150.627 531.419 117.516 555.384 99.0031C564.064 92.3 576.167 92.3 584.847 99.0031C608.811 117.517 623.753 150.627 632.069 175.142C641.589 203.209 647.05 233.417 647.05 258.017C647.05 268.777 645.93 280.106 643.889 291.564C643.889 291.564 770.116 291.564 770.116 291.564C722.727 123.523 568.05 0 385.055 0C202.059 0 47.3828 123.523 0 291.566C0 291.566 343.534 291.566 343.534 291.566C345.327 283.338 347.614 275.028 350.348 266.961C350.348 266.961 350.348 266.961 350.348 266.961Z" fill="#409EFF" transform="translate(14.945 0)" />
          <path id="Path" d="M75.6359 70.6609C99.4531 49.7141 120.766 25.9937 139.067 0C92.5109 5.05316 46.125 12.1453 0 21.2609C25.6453 37.0422 50.8765 53.5094 75.6359 70.6609C75.6359 70.6609 75.6359 70.6609 75.6359 70.6609Z" fill="#409EFF" transform="translate(588.213 629.709)" />
          <path id="Path" d="M23.2438 41.4421C121.609 67.1218 217.355 101.527 308.803 144.194C355.775 166.109 401.727 190.286 446.484 216.523C462.573 212.967 478.302 208.442 493.603 203.008C342.087 108.617 176.769 40.586 0 0C6.94223 14.3062 14.7063 28.1453 23.2438 41.4421C23.2438 41.4421 23.2438 41.4421 23.2438 41.4421Z" fill="#409EFF" transform="translate(39.898 574.055)" />
          <path id="Path" d="M33.2515 95.7859C35.6422 96.9016 38.0156 98.0562 40.4031 99.1828C159.287 64.6 280.953 42.5531 401.305 33.4984C404.081 22.5063 406.391 11.3297 408.234 0C270.034 9.04373 133.555 36.0188 0 80.7641C11.139 85.6656 22.2343 90.6485 33.2515 95.7859C33.2515 95.7859 33.2515 95.7859 33.2515 95.7859Z" fill="#409EFF" transform="translate(386.553 464.422)" />
          <path id="Path" d="M35.1485 67.2953C111.605 49.6422 188.847 37.4328 266.491 30.7125C271.495 20.7 276.108 10.4625 280.277 0C186.886 8.14532 92.7876 24.3031 0 48.2672C11.7844 54.4734 23.5094 60.8047 35.1485 67.2953C35.1485 67.2953 35.1485 67.2953 35.1485 67.2953Z" fill="#409EFF" transform="translate(491.505 547.577)" />
        </g>
      </g>
    </g>
  </g>
</svg>