<?xml version="1.0" encoding="utf-8"?>
<svg width="800" height="800" viewBox="0 0 800 800" fill="none" xmlns="http://www.w3.org/2000/svg">
  <g>
    <rect width="800" height="800" />
    <path id="Path" d="M664.937 305.688C664.937 305.688 398.562 305.688 398.562 305.688C394.437 305.688 391.125 309 391.125 313.125C391.125 313.125 391.125 424.563 391.125 424.563C391.125 426.5 391.875 428.438 393.312 429.813C394.687 431.188 396.562 432 398.562 432C398.562 432 484.875 431.875 484.875 431.875C478.312 484.313 418.938 527.188 350.562 527.188C245.125 527.188 179.937 430.313 179.937 340.5C179.937 252.188 243.75 160.813 350.562 160.813C396.875 160.813 456.5 188.5 487.312 215.25C488.812 216.563 490.75 217.125 492.687 217.063C494.687 216.938 496.562 216 497.812 214.5C497.812 214.5 596.875 100.188 596.875 100.188C599.501 97.1384 599.253 92.5598 596.313 89.8125C532.938 31.0625 447.937 0 350.562 0C147.437 0 0 143.188 0 340.438C0 537.75 147.437 680.938 350.562 680.938C656.875 680.938 672.375 374.437 672.375 313C672.375 309 669.063 305.688 664.937 305.688C664.937 305.688 664.937 305.688 664.937 305.688Z" fill="#409EFF" transform="translate(63.813 87.188)" />
  </g>
</svg>